<svg version="1.1" id="Layer_1" xmlns="http://www.w3.org/2000/svg" xmlns:xlink="http://www.w3.org/1999/xlink" x="0px" y="0px"
	 width="100%" viewBox="0 0 600 600" enable-background="new 0 0 600 600" xml:space="preserve">
<path fill="#FFFFFF" opacity="1.000000" stroke="none" 
	d="
M354.000000,601.000000 
	C237.333328,601.000000 121.166641,600.980591 5.000094,601.095215 
	C1.576143,601.098633 0.903704,600.423584 0.905541,596.999939 
	C1.011461,399.666656 1.011461,202.333328 0.905541,5.000051 
	C0.903704,1.576437 1.576437,0.903705 5.000051,0.905542 
	C202.333328,1.011455 399.666656,1.011455 596.999939,0.905542 
	C600.423584,0.903705 601.096252,1.576437 601.094421,5.000051 
	C600.988525,202.333328 600.988525,399.666656 601.094421,596.999939 
	C601.096252,600.423584 600.424194,601.101257 596.999878,601.096008 
	C516.166748,600.972229 435.333344,601.000000 354.000000,601.000000 
z"/>
<path fill="#0A354D" opacity="1.000000" stroke="none" 
	d="
M395.218689,109.647202 
	C404.069519,101.051765 415.239624,99.672798 424.627991,105.747643 
	C433.848419,111.713837 437.298950,122.444626 432.981293,133.357620 
	C431.773560,136.410172 433.210938,137.393784 434.999329,138.897324 
	C472.094116,170.082748 496.138000,209.241989 506.506439,256.627441 
	C531.440918,370.582336 457.290283,484.234680 343.070770,506.979889 
	C294.463318,516.659424 247.996704,510.032440 203.874084,487.413727 
	C201.162720,486.023773 198.882248,485.739227 195.897491,486.747223 
	C172.417831,494.676941 148.862625,502.382721 125.345833,510.203003 
	C122.753128,511.065216 120.218277,512.084717 117.888657,509.814758 
	C115.638863,507.622528 116.247429,505.020111 116.899063,502.343201 
	C122.448441,479.546295 127.878738,456.720062 133.527054,433.947845 
	C134.328003,430.718658 133.817856,428.410919 131.858871,425.734863 
	C65.762779,335.444458 80.639290,211.817688 166.280060,139.620193 
	C168.953049,137.366806 170.092484,135.810272 168.528641,131.963455 
	C164.650940,122.425003 169.043854,110.860725 177.821350,105.367470 
	C186.569214,99.892754 198.408524,101.102959 205.827179,108.739296 
	C208.207367,111.189339 209.759048,111.504906 212.875809,110.124924 
	C271.551910,84.145142 330.299286,84.077583 389.060547,109.955124 
	C390.924805,110.776100 393.017853,113.206459 395.218689,109.647202 
z"/>
<path fill="#FDFEFE" opacity="1.000000" stroke="none" 
	d="
M421.320374,365.232605 
	C419.573669,391.895447 406.035126,409.171112 381.481995,418.159027 
	C362.177185,425.225677 342.059601,427.623535 321.720612,428.509399 
	C291.514557,429.825043 261.411804,429.181854 232.004486,421.040588 
	C215.956635,416.597778 201.462463,409.490814 192.117416,394.764130 
	C186.649704,386.147675 184.302216,376.535919 183.087463,365.939880 
	C196.256668,372.758514 209.668503,377.355011 223.883896,379.420746 
	C226.517944,379.803528 229.161179,380.138916 231.809357,380.404846 
	C235.564117,380.781921 238.965698,381.161163 242.104675,384.176208 
	C245.947037,387.866882 252.503555,386.684998 256.003113,382.675751 
	C259.521637,378.644775 259.438690,372.465851 255.813461,368.543762 
	C252.134506,364.563538 245.816345,363.627441 241.871414,367.419525 
	C238.991150,370.188080 236.134308,370.206146 232.821457,369.888824 
	C216.372528,368.313446 200.919464,363.555847 186.428787,355.577606 
	C183.805786,354.133453 182.739807,352.487030 182.753006,349.367920 
	C182.896164,315.556732 182.867615,281.744843 182.966064,247.471008 
	C190.262527,223.751694 204.826004,205.531540 223.512985,190.765793 
	C238.272339,179.103500 255.239395,171.073318 273.863098,167.395142 
	C297.876404,162.652557 321.678772,163.921829 344.772797,172.207260 
	C376.521057,183.597565 399.726288,204.525269 414.335724,235.168213 
	C419.496216,245.992172 421.831299,256.861389 421.630310,268.844208 
	C421.093811,300.830292 421.704041,332.829071 421.320374,365.232605 
z"/>
<path fill="#FCFDFD" opacity="1.000000" stroke="none" 
	d="
M185.124161,176.677368 
	C170.513275,193.641830 159.827393,212.285309 153.015213,233.108139 
	C152.363541,235.100128 151.139893,235.926163 149.325012,236.638687 
	C134.347275,242.518814 126.275177,254.035843 126.190628,269.963348 
	C126.080101,290.786743 125.994438,311.613129 126.220772,332.434723 
	C126.465034,354.906525 146.169662,370.794128 167.817535,365.828888 
	C172.334305,364.792908 172.564011,366.301941 172.985214,369.816010 
	C175.461304,390.473846 183.931854,407.732300 201.923157,419.348816 
	C213.546158,426.853516 226.437210,431.110107 239.845245,434.084686 
	C251.704056,436.715607 263.780731,437.733887 275.963715,438.907410 
	C275.259552,440.826477 273.741089,440.689301 272.564545,441.103943 
	C251.655838,448.472992 237.068848,462.267548 229.843887,483.403015 
	C228.850662,486.308502 227.992538,487.487732 224.820374,485.839783 
	C218.776337,482.699799 212.394653,480.188873 206.456039,476.874146 
	C202.600800,474.722290 199.202621,474.569336 195.102570,475.958313 
	C173.257706,483.358643 151.339035,490.541107 128.787323,498.017303 
	C131.407654,486.993896 133.875153,476.517273 136.391907,466.052460 
	C138.998108,455.215607 141.427383,444.328339 144.388962,433.588531 
	C145.684235,428.891418 144.741867,425.446686 141.877167,421.642029 
	C113.624214,384.119141 99.703972,341.745544 101.374046,294.850647 
	C103.505241,235.007950 128.248322,185.782288 173.724518,146.921402 
	C177.847473,143.398209 180.529770,143.793106 184.729736,148.708725 
	C186.232239,158.090637 185.182724,167.201935 185.124161,176.677368 
z"/>
<path fill="#FBFCFD" opacity="1.000000" stroke="none" 
	d="
M477.739716,335.336548 
	C478.093597,334.569763 478.206360,334.129059 478.215607,333.357910 
	C477.127594,331.874115 477.533844,330.484894 477.533905,329.200012 
	C477.535004,308.121582 477.461456,287.043060 477.717957,265.497314 
	C477.022247,251.895584 467.468811,240.246918 453.941803,236.433487 
	C450.979126,235.598282 449.695435,234.217468 448.677948,231.452393 
	C441.755249,212.639465 432.262238,195.266586 419.135620,179.994583 
	C418.501282,179.256592 418.067383,178.346283 417.367493,177.235168 
	C416.776001,167.889771 416.332520,158.825974 416.885101,149.395142 
	C419.812775,144.479584 424.073517,143.445404 427.778961,146.535126 
	C541.628540,241.466339 518.650085,419.304077 384.799438,482.457458 
	C381.618744,483.958191 380.138794,484.415680 378.532898,480.264740 
	C371.130402,461.130280 357.289917,448.451141 338.062714,441.494781 
	C336.442810,440.908661 334.418457,440.983002 333.024384,438.751221 
	C339.977936,437.842621 346.671326,437.056396 353.336365,436.077087 
	C364.226837,434.476929 374.904999,431.976349 385.249939,428.151367 
	C412.457428,418.091583 428.213562,398.804565 431.674011,369.919952 
	C432.155457,365.901367 433.391449,365.646484 436.853760,366.170288 
	C455.953796,369.059998 470.281372,360.565308 476.897736,342.339111 
	C476.443420,339.804565 476.970673,337.733582 477.739716,335.336548 
z"/>
<path fill="#FAFCFC" opacity="1.000000" stroke="none" 
	d="
M228.188736,150.237717 
	C225.059097,146.807861 222.097153,146.912048 218.610504,149.143860 
	C210.656586,154.235229 203.032532,159.761963 195.152145,166.820496 
	C195.152145,160.138199 195.222626,154.566223 195.114288,148.997726 
	C195.075882,147.023941 196.215607,146.559708 197.710327,145.971344 
	C207.277313,142.205475 212.088058,134.905380 212.416779,124.848190 
	C212.508301,122.048264 213.658005,121.087486 215.747787,120.149483 
	C272.451935,94.697968 329.160248,94.569695 385.911957,120.010498 
	C388.419159,121.134438 389.564484,122.341042 389.667725,125.466064 
	C389.981750,134.967941 394.862610,141.834961 403.576965,145.613892 
	C406.129456,146.720764 407.125336,147.882278 406.989136,150.686996 
	C406.740692,155.802612 406.918488,160.938934 406.918488,166.020538 
	C405.149933,166.532379 404.624451,165.171722 403.841125,164.483749 
	C374.942841,139.103027 340.969116,127.198540 302.817596,126.329903 
	C299.348724,126.250931 296.459717,126.944908 295.731201,131.395447 
	C292.560150,134.391632 288.723236,133.288879 284.827820,133.750473 
	C281.350037,129.557663 277.417725,129.130630 272.602081,130.157501 
	C263.698395,132.056091 254.951706,134.388412 246.380829,137.445496 
	C242.999969,138.651382 240.730728,140.744888 239.704712,144.619843 
	C236.256683,147.560715 232.663177,149.499054 228.188736,150.237717 
z"/>
<path fill="#FBFCFD" opacity="1.000000" stroke="none" 
	d="
M276.799133,499.272797 
	C264.751526,497.905090 253.424255,495.348114 242.245850,492.007294 
	C239.487228,491.182861 238.496826,490.355682 239.595428,487.231201 
	C245.527420,470.360107 256.741241,458.695038 273.267853,451.979919 
	C275.910309,450.906219 277.063477,451.043243 278.208679,454.149506 
	C282.437469,465.619537 293.414886,473.009430 305.122101,472.826782 
	C316.905365,472.642914 327.143982,465.410889 331.344330,453.964996 
	C332.294678,451.375244 333.085938,450.712646 335.831238,451.787476 
	C351.753815,458.021301 362.790222,469.034576 369.107727,484.890350 
	C370.037781,487.224609 370.293518,488.588013 367.245880,489.624939 
	C337.955536,499.590668 307.999176,503.079346 276.799133,499.272797 
z"/>
<path fill="#68DCDD" opacity="1.000000" stroke="none" 
	d="
M169.234207,353.967773 
	C154.642334,360.515076 137.528915,350.529938 137.139542,334.830231 
	C136.578293,312.200317 136.767410,289.544983 137.019241,266.904755 
	C137.132538,256.718842 145.734589,247.640335 155.907974,245.882111 
	C160.385376,245.108292 164.862488,245.316727 169.712326,246.204620 
	C171.866928,248.293274 171.477539,250.678741 171.480469,252.969849 
	C171.521408,284.995117 171.414322,317.020477 171.723053,349.499207 
	C171.964218,350.415649 172.019485,350.878540 171.998138,351.684906 
	C171.701340,352.256653 171.485718,352.489166 171.171463,352.940063 
	C171.068298,353.154236 171.054947,353.065643 171.097046,353.080933 
	C170.592148,353.384430 169.970093,353.463623 169.234207,353.967773 
z"/>
<path fill="#66DADC" opacity="1.000000" stroke="none" 
	d="
M437.874634,355.316223 
	C437.439331,355.265503 437.260559,355.452087 437.137177,355.413757 
	C434.468536,354.394470 432.903412,353.139221 432.918121,349.816162 
	C433.062469,317.131897 432.991028,284.446716 433.018738,251.761795 
	C433.019592,250.766510 433.041382,249.767456 433.722778,248.414795 
	C449.789612,240.332031 467.188782,250.545990 467.664642,268.499908 
	C468.240906,290.244537 467.977173,312.017944 467.717499,333.774658 
	C467.627899,341.281982 464.124298,347.488312 457.511414,352.003265 
	C454.655853,353.219482 452.060669,354.194763 449.241150,355.517700 
	C448.516968,355.787415 448.083801,355.868866 447.318939,355.923828 
	C444.142212,354.944977 441.184143,355.842194 437.874634,355.316223 
z"/>
<path fill="#DCE3E8" opacity="1.000000" stroke="none" 
	d="
M421.552826,365.242126 
	C421.207642,361.491241 420.988190,357.339111 420.983856,353.186798 
	C420.953339,323.881653 420.777161,294.574463 421.090942,265.272675 
	C421.176758,257.260101 419.393250,249.914429 416.347290,242.760147 
	C409.475555,226.619995 400.404022,211.961029 387.443573,199.856415 
	C376.799957,189.915649 365.048157,182.088257 351.462616,176.451965 
	C333.515350,169.006073 315.013275,165.287628 295.807770,166.147919 
	C272.337860,167.199234 250.574051,173.933273 230.828018,187.305481 
	C214.983887,198.035294 202.618301,211.734283 192.843567,227.886490 
	C189.232559,233.853485 186.755829,240.506897 183.403992,246.928040 
	C182.218185,243.090652 183.296570,239.553726 184.740402,235.899551 
	C218.988831,149.220917 334.227844,129.195587 395.631439,199.339340 
	C408.015594,213.486221 416.036835,230.039352 421.433990,247.932983 
	C421.808899,249.175964 421.849823,250.553864 421.853638,251.869568 
	C421.958252,288.031860 422.042023,324.194214 422.106598,360.356567 
	C422.109253,361.851105 421.892609,363.346069 421.552826,365.242126 
z"/>
<path fill="#68D7DA" opacity="1.000000" stroke="none" 
	d="
M416.600098,194.785065 
	C425.737427,205.801682 432.157806,217.939972 437.034332,230.926727 
	C437.680939,232.648758 439.898254,235.249100 435.914795,235.767227 
	C433.218384,236.117981 430.189148,240.409622 427.858887,234.246048 
	C412.548035,193.748260 384.530029,165.916229 343.042114,153.044601 
	C277.072723,132.577637 204.085403,160.941956 175.275589,231.149628 
	C174.616531,232.755676 174.632904,235.403259 172.703934,235.618851 
	C170.146912,235.904648 167.361481,235.448639 164.877441,234.666199 
	C162.955444,234.060791 164.507584,232.396988 164.878296,231.325226 
	C168.876068,219.767685 174.631561,209.101196 181.472198,198.999130 
	C182.757614,197.100845 184.121338,195.255600 185.727036,193.192902 
	C186.242615,192.767487 186.469604,192.525223 186.812286,192.058426 
	C186.968521,191.545532 187.086670,191.287720 187.475861,190.955841 
	C189.802933,189.500839 191.581070,187.824402 192.693848,185.127350 
	C192.784805,184.800781 192.820526,184.844131 192.795410,184.816010 
	C202.479843,175.873932 213.313293,168.486404 224.344055,161.342834 
	C227.032516,159.601761 229.913895,158.390976 232.755051,157.011810 
	C249.852173,148.712463 267.822571,143.367310 286.777496,142.096817 
	C301.876160,141.084824 316.963409,141.096985 331.987732,144.230301 
	C362.193573,150.529678 388.390717,163.898224 409.496765,186.643631 
	C411.849976,189.179611 413.746185,192.148117 416.600098,194.785065 
z"/>
<path fill="#5DC5C9" opacity="1.000000" stroke="none" 
	d="
M416.907501,194.669983 
	C413.879181,195.440842 413.061737,192.656601 411.687378,191.050781 
	C397.291077,174.229904 379.804504,161.683380 359.205902,153.763031 
	C348.373657,149.597931 337.279999,146.364807 325.583282,144.671448 
	C307.637299,142.073395 290.096436,142.958893 272.257538,145.531036 
	C256.764252,147.764969 242.598923,153.499115 229.061005,160.362900 
	C218.171387,165.883987 207.753586,172.865662 198.784882,181.557709 
	C197.333862,182.963974 196.044022,185.007309 193.150604,184.849442 
	C201.326340,173.824219 212.222931,165.611862 223.986069,158.473648 
	C226.989548,156.651047 228.911957,154.629227 227.883438,150.498459 
	C231.472961,148.361023 235.117371,146.629822 239.160599,144.887085 
	C243.452057,146.400421 247.077316,145.758301 250.995712,144.367584 
	C259.085236,141.496368 267.356140,139.048065 275.899994,137.895233 
	C279.303741,137.435959 281.779297,135.966370 283.939331,133.009369 
	C287.789612,132.503326 291.298950,132.160858 295.229126,131.790359 
	C296.311859,136.585632 299.648346,137.007614 303.679260,137.101242 
	C348.870026,138.150879 385.936859,155.972107 414.536438,191.115219 
	C415.373474,192.143768 416.109253,193.254730 416.907501,194.669983 
z"/>
<path fill="#F7FAFB" opacity="1.000000" stroke="none" 
	d="
M321.846344,445.694061 
	C321.347137,454.928864 314.713104,461.577728 306.141052,462.139618 
	C296.678894,462.759796 289.459991,456.914795 287.232544,446.423218 
	C288.343781,444.791992 289.837708,444.546722 291.329895,444.516724 
	C300.432251,444.333649 309.535828,444.280029 318.637817,444.546906 
	C319.634277,444.576111 320.596832,444.861969 321.846344,445.694061 
z"/>
<path fill="#6AD5D8" opacity="1.000000" stroke="none" 
	d="
M187.729858,113.408524 
	C195.248306,112.039795 201.337372,116.572205 201.956131,123.570564 
	C202.575775,130.579315 197.139420,136.716232 190.154373,136.893143 
	C182.717529,137.081512 177.809952,131.551773 178.171844,122.820137 
	C180.037216,122.911987 181.036591,124.233818 182.218948,125.377991 
	C185.100952,128.166916 188.264984,128.202362 190.898499,125.618698 
	C193.401260,123.163269 193.145477,119.802040 190.226746,116.970840 
	C189.208542,115.983154 187.526703,115.544868 187.729858,113.408524 
z"/>
<path fill="#6BD7D9" opacity="1.000000" stroke="none" 
	d="
M410.732513,113.374496 
	C417.922211,112.461044 423.193268,116.314522 424.137085,122.743484 
	C425.115753,129.410202 420.920746,135.399826 414.343964,136.726074 
	C408.146698,137.975769 402.155487,133.999741 400.541443,127.476303 
	C400.228912,126.213234 400.262329,124.864578 400.292847,123.232956 
	C402.933075,122.021782 403.433258,124.379395 404.581085,125.535652 
	C407.114655,128.087814 409.783051,128.409424 412.474274,126.060753 
	C415.081329,123.785500 415.383575,121.003731 413.487976,118.056656 
	C412.535828,116.576332 410.489807,115.829216 410.732513,113.374496 
z"/>
<path fill="#D0DBE0" opacity="1.000000" stroke="none" 
	d="
M322.394714,445.690582 
	C310.868011,446.039917 299.524445,446.046661 287.730469,446.054321 
	C286.666870,439.232727 286.671326,439.146057 293.409271,439.492584 
	C301.243378,439.895477 309.061157,439.643311 316.884308,439.285583 
	C322.950653,439.008209 322.951874,439.034668 322.394714,445.690582 
z"/>
<path fill="#63BEC9" opacity="1.000000" stroke="none" 
	d="
M433.608124,248.094025 
	C433.981354,281.845184 433.983398,315.689850 433.919220,349.534393 
	C433.914856,351.842377 434.015930,353.839325 436.808014,355.025452 
	C433.189270,355.336243 432.081024,353.436646 432.097198,349.650330 
	C432.235687,317.211792 432.170685,284.772461 432.185394,252.333344 
	C432.186035,250.887833 431.754700,249.286987 433.608124,248.094025 
z"/>
<path fill="#B7EFF2" opacity="1.000000" stroke="none" 
	d="
M187.552185,113.106392 
	C188.064819,113.971413 188.451950,114.596565 189.345718,114.921295 
	C193.012787,116.253662 194.264069,119.129257 193.955185,122.739388 
	C193.659531,126.194656 191.111877,127.935516 188.169968,128.736557 
	C184.748505,129.668182 182.082626,128.203094 180.355408,125.065414 
	C179.962158,124.351013 179.373093,123.744400 178.614304,122.771355 
	C179.094360,117.249329 182.257843,114.335083 187.552185,113.106392 
z"/>
<path fill="#B7EFF2" opacity="1.000000" stroke="none" 
	d="
M410.550659,113.062851 
	C410.964325,114.486603 412.117706,114.935158 413.063141,115.581276 
	C415.897003,117.517990 416.653015,120.336441 415.911591,123.457108 
	C415.258514,126.206001 413.245697,128.152298 410.569824,128.825165 
	C407.384979,129.626022 404.715729,128.464691 402.949371,125.526611 
	C402.442688,124.683800 401.756866,123.948662 400.801331,123.037338 
	C401.366486,117.324898 404.588379,114.014259 410.550659,113.062851 
z"/>
<path fill="#7BDAE0" opacity="1.000000" stroke="none" 
	d="
M171.984955,349.493439 
	C170.304291,348.258972 171.039352,346.156067 171.036209,344.249664 
	C170.986496,314.046783 171.003235,283.843781 170.996765,253.640808 
	C170.996307,251.493896 171.228134,249.312820 170.179596,246.820618 
	C173.054703,247.067062 172.052353,249.487152 172.054672,251.268555 
	C172.097137,283.857025 172.071854,316.445587 171.984955,349.493439 
z"/>
<path fill="#002439" opacity="1.000000" stroke="none" 
	d="
M477.608032,265.340698 
	C479.037323,274.782104 478.064789,284.560730 478.211761,294.326050 
	C478.401337,306.919861 478.321075,319.517731 478.234528,332.570679 
	C476.754120,332.131683 477.000946,330.724304 477.000885,329.423248 
	C476.999878,308.648743 477.009033,287.874207 477.032867,267.099701 
	C477.033417,266.616852 477.230804,266.134186 477.608032,265.340698 
z"/>
<path fill="#002439" opacity="1.000000" stroke="none" 
	d="
M416.840332,149.292145 
	C417.268951,158.085648 417.357178,167.127594 417.320129,176.561829 
	C416.393280,176.508423 416.003387,175.793564 416.029907,174.910400 
	C416.283752,166.455505 415.353485,157.978516 416.840332,149.292145 
z"/>
<path fill="#002439" opacity="1.000000" stroke="none" 
	d="
M185.155396,176.791962 
	C184.768402,168.024048 184.710098,158.980942 184.765091,149.482529 
	C186.711884,150.405609 186.002960,152.407394 185.958298,154.125870 
	C185.764389,161.588913 186.631149,169.076065 185.155396,176.791962 
z"/>
<path fill="#63BEC9" opacity="1.000000" stroke="none" 
	d="
M449.310486,355.719666 
	C450.831512,353.241516 453.651794,352.701324 456.810791,352.089783 
	C455.147278,354.277740 452.387909,354.961395 449.310486,355.719666 
z"/>
<path fill="#5DC5C9" opacity="1.000000" stroke="none" 
	d="
M192.489502,184.947357 
	C193.375214,188.298187 191.263474,189.859070 188.038406,190.867767 
	C188.668030,188.529007 190.570312,186.921310 192.489502,184.947357 
z"/>
<path fill="#002439" opacity="1.000000" stroke="none" 
	d="
M477.612549,335.082886 
	C478.250793,337.160278 477.809875,339.216675 477.012329,341.608398 
	C475.675354,339.625519 475.100525,337.314362 477.612549,335.082886 
z"/>
<path fill="#63BEC9" opacity="1.000000" stroke="none" 
	d="
M437.803772,355.521362 
	C440.418213,355.001556 443.397034,354.741058 446.676575,355.631287 
	C444.039795,356.424713 441.100739,356.339874 437.803772,355.521362 
z"/>
<path fill="#7BDAE0" opacity="1.000000" stroke="none" 
	d="
M169.368011,354.184875 
	C169.531723,353.841003 170.005585,353.463379 170.809296,353.091003 
	C170.652161,353.447845 170.165161,353.799469 169.368011,354.184875 
z"/>
<path fill="#7BDAE0" opacity="1.000000" stroke="none" 
	d="
M171.332291,353.078552 
	C171.098984,352.807953 171.240646,352.515411 171.707397,352.152496 
	C171.813110,352.353210 171.704697,352.678040 171.332291,353.078552 
z"/>
<path fill="#5DC5C9" opacity="1.000000" stroke="none" 
	d="
M186.688507,191.945526 
	C186.781982,192.147537 186.625565,192.451385 186.237152,192.877594 
	C186.149643,192.682419 186.294128,192.364883 186.688507,191.945526 
z"/>
<path fill="#05324D" opacity="1.000000" stroke="none" 
	d="
M364.506927,249.312958 
	C380.885590,250.795197 393.494080,258.531860 400.603271,272.524170 
	C410.549622,292.100555 410.532135,312.487610 399.064880,331.663269 
	C390.888855,345.335388 377.766022,352.587585 362.009003,352.770294 
	C321.353821,353.241638 280.684509,353.262054 240.030167,352.739166 
	C217.183655,352.445312 198.509445,334.863464 195.733032,312.187531 
	C194.164078,299.373474 193.907349,286.494781 200.167099,274.567108 
	C208.208389,259.244781 220.973923,250.753891 238.596649,249.003204 
	C240.092316,249.713989 241.280655,249.508316 242.428513,249.507736 
	C282.967285,249.487442 323.506104,249.575073 364.506927,249.312958 
z"/>
<path fill="#002439" opacity="1.000000" stroke="none" 
	d="
M364.514252,249.041534 
	C363.901825,250.264603 362.511261,249.986008 361.211304,249.986404 
	C321.497040,249.998779 281.782776,250.000839 242.068512,249.985535 
	C241.255432,249.985229 240.442444,249.760864 239.323303,249.361389 
	C240.002930,248.970917 240.988602,248.763840 241.974426,248.763092 
	C281.342651,248.733337 320.710907,248.720123 360.079163,248.718079 
	C361.405945,248.718002 362.732727,248.854858 364.514252,249.041534 
z"/>
<path fill="#09364D" opacity="1.000000" stroke="none" 
	d="
M284.164124,132.500061 
	C283.844116,136.471573 281.830231,138.357010 278.179230,138.857651 
	C267.830200,140.276764 257.796234,143.003036 248.065811,146.762939 
	C244.924438,147.976746 242.321777,148.026321 239.836929,145.045471 
	C238.652100,140.760986 240.312744,138.301102 244.228958,136.820892 
	C254.840118,132.810135 265.761353,130.050034 276.936615,128.226700 
	C280.317902,127.675018 282.814362,128.786850 284.164124,132.500061 
z"/>
<path fill="#59C9CA" opacity="1.000000" stroke="none" 
	d="
M161.002701,315.000000 
	C161.002808,323.497009 160.790421,331.502045 161.091705,339.487671 
	C161.244598,343.539642 159.508423,344.200073 156.057449,344.074707 
	C152.637100,343.950500 149.868515,344.092255 149.927521,339.240967 
	C150.124069,323.082764 150.001450,306.920624 150.001236,290.760010 
	C150.001129,282.263184 150.148087,273.762695 149.936172,265.271149 
	C149.837189,261.304932 151.371567,259.027802 155.253006,259.164520 
	C158.670166,259.284943 161.245865,260.200745 161.140747,265.021515 
	C160.781281,281.507538 161.002792,298.006165 161.002701,315.000000 
z"/>
<path fill="#5BC9CB" opacity="1.000000" stroke="none" 
	d="
M455.992615,294.000000 
	C455.992371,309.463318 455.790161,324.430847 456.104553,339.387543 
	C456.210571,344.429626 453.463867,343.932068 450.167328,344.066711 
	C446.545197,344.214600 444.857910,343.498962 444.893555,339.224640 
	C445.100342,314.453796 445.049988,289.680115 444.932709,264.908081 
	C444.916351,261.449890 445.501648,259.736572 449.517456,259.870422 
	C453.310669,259.996887 456.059998,260.368073 456.015167,265.070038 
	C455.924835,274.545898 455.990997,284.023254 455.992615,294.000000 
z"/>
<path fill="#224C63" opacity="1.000000" stroke="none" 
	d="
M301.249146,311.217163 
	C295.451416,295.519531 289.879211,280.121429 284.393646,264.692505 
	C282.394745,259.070374 282.488861,259.023010 288.496429,259.014221 
	C297.311615,259.001343 306.127075,259.050507 314.941742,258.982117 
	C317.106293,258.965332 318.571259,259.235352 319.442474,261.710480 
	C328.607544,287.748077 337.884094,313.746643 347.208038,339.727905 
	C348.007935,341.956848 346.762939,341.984009 345.354279,341.987976 
	C335.208649,342.016754 325.062775,341.981018 314.917328,342.031281 
	C313.120575,342.040192 312.281799,341.278931 311.708252,339.619385 
	C311.067535,337.765411 310.787415,335.703522 308.976685,333.998688 
	C309.097290,331.682434 310.996399,331.128906 312.510864,330.222595 
	C317.490997,327.242279 320.186218,322.640900 321.909302,317.300079 
	C323.010406,313.887085 321.865143,312.445251 318.234131,312.301605 
	C312.658966,312.081055 307.009399,313.237823 301.249146,311.217163 
z"/>
<path fill="#204D64" opacity="1.000000" stroke="none" 
	d="
M235.418350,283.475769 
	C233.047729,277.167908 231.051529,271.061523 228.849518,265.030273 
	C227.916031,262.473511 228.549469,261.313019 231.218582,260.953278 
	C235.463547,260.381134 239.691696,259.682495 243.923935,259.018127 
	C247.453476,258.464081 249.163391,259.860687 250.361847,263.389801 
	C257.487152,284.371643 264.728485,305.319061 272.388672,326.109375 
	C273.688446,329.637085 274.803040,333.277557 276.288086,336.768890 
	C278.048706,340.908081 277.170654,341.962402 272.493866,342.007599 
	C268.171722,342.049408 263.840057,341.849548 259.529236,342.074829 
	C256.372559,342.239807 254.761765,341.208466 253.794128,338.052917 
	C251.807404,331.574066 249.353775,325.238373 247.036148,318.484924 
	C247.429840,316.090942 249.283508,315.413818 250.693527,314.324402 
	C256.653961,309.719269 258.660248,303.100647 256.305847,295.700439 
	C254.049011,288.606903 248.731354,284.612946 241.114227,284.286255 
	C239.300674,284.208435 237.453568,284.437378 235.418350,283.475769 
z"/>
<path fill="#F7FAFA" opacity="1.000000" stroke="none" 
	d="
M300.528564,311.018127 
	C307.426239,311.001099 313.866486,311.224121 320.298676,311.081329 
	C323.640961,311.007080 324.252930,312.353943 323.678711,315.271454 
	C321.990295,323.850403 317.437378,330.049988 308.908386,333.529114 
	C293.079468,336.762177 281.556580,329.984009 278.587494,316.310852 
	C277.771851,312.554718 278.173248,310.787323 282.661652,311.059967 
	C288.443329,311.411163 294.263947,311.120575 300.528564,311.018127 
z"/>
<path fill="#69D4D9" opacity="1.000000" stroke="none" 
	d="
M378.114471,308.837036 
	C373.122742,317.193726 365.606384,320.679291 357.403290,318.727844 
	C349.669189,316.887909 344.081818,310.105988 343.476471,301.823517 
	C342.920776,294.220734 347.776947,286.614075 355.325317,283.969055 
	C362.299683,281.525238 368.898163,282.555359 374.256927,287.878998 
	C380.161713,293.745117 381.519379,300.722198 378.114471,308.837036 
z"/>
<path fill="#7BDAE0" opacity="1.000000" stroke="none" 
	d="
M234.905548,283.458252 
	C248.588989,281.963226 256.670563,287.403534 258.390015,298.903778 
	C259.539581,306.592529 255.793503,313.108704 247.270081,317.933960 
	C246.160065,318.304169 245.340164,318.482208 244.098434,318.660126 
	C243.287613,315.060211 239.118103,317.019012 237.844482,314.346558 
	C239.854691,312.125458 242.827042,312.364929 245.279572,310.594269 
	C250.320984,307.638275 252.348053,303.663666 251.420990,298.979767 
	C250.248093,293.053711 246.734192,290.341827 238.844742,289.567780 
	C238.270584,289.595123 238.040909,289.594513 237.474503,289.526733 
	C236.724289,289.262512 236.360489,288.998779 235.897293,288.368927 
	C236.022888,285.910706 233.844833,286.316376 232.746246,285.118530 
	C233.270355,284.448425 233.977142,284.060547 234.905548,283.458252 
z"/>
<path fill="#68D2D6" opacity="1.000000" stroke="none" 
	d="
M237.788208,313.303467 
	C239.374161,315.964966 241.700150,314.722961 243.625320,315.002289 
	C247.292877,315.534485 244.742172,316.855957 243.861694,318.307373 
	C233.944412,320.080933 226.169510,315.659210 223.115768,306.966736 
	C220.140030,298.496216 223.520889,290.019073 232.236359,284.877319 
	C233.791733,285.939941 238.165390,283.378296 236.317078,288.378296 
	C236.256058,288.924133 236.199707,289.153137 235.945038,289.673920 
	C229.015564,295.803253 227.465332,301.524567 230.960785,307.153259 
	C232.608322,309.806213 235.593597,310.835541 237.788208,313.303467 
z"/>
<path fill="#05354E" opacity="1.000000" stroke="none" 
	d="
M352.445068,309.497986 
	C347.293976,301.834320 348.481781,294.307709 355.194397,290.174316 
	C361.116974,286.527405 368.935822,288.531830 372.557251,294.625488 
	C375.607086,299.757385 374.481049,306.552063 369.922180,310.525360 
	C365.030884,314.788330 358.800720,314.515991 352.445068,309.497986 
z"/>
<path fill="#05354E" opacity="1.000000" stroke="none" 
	d="
M238.359756,313.597626 
	C232.582779,311.728088 228.586243,308.551147 227.925339,302.482330 
	C227.246902,296.252594 230.239899,292.011230 235.874741,289.111877 
	C236.331177,288.934875 236.431946,288.762573 236.735687,288.810364 
	C237.111954,288.981812 237.285233,288.933105 237.726608,288.916595 
	C240.386551,293.695068 241.711243,298.842468 243.573578,303.787811 
	C244.451904,306.120209 245.316711,308.459717 246.833374,310.927704 
	C244.585632,313.335358 241.790405,313.879761 238.359756,313.597626 
z"/>
<path fill="#205065" opacity="1.000000" stroke="none" 
	d="
M247.261734,311.245758 
	C246.191391,311.024048 244.882706,310.925446 244.727615,310.450256 
	C242.478455,303.559601 238.804214,297.127380 237.986603,289.363190 
	C243.744690,287.644318 249.083710,290.123260 251.622452,295.276184 
	C254.426270,300.967163 253.005310,306.534576 247.261734,311.245758 
z"/>
<path fill="#205065" opacity="1.000000" stroke="none" 
	d="
M236.877197,288.917358 
	C236.938675,289.030487 236.589905,289.122498 236.410156,289.114838 
	C236.230408,289.107178 236.238754,288.894470 236.275589,288.794800 
	C236.484741,288.710571 236.652512,288.746918 236.877197,288.917358 
z"/>
</svg>