<svg version="1.1" id="Layer_1" xmlns="http://www.w3.org/2000/svg" xmlns:xlink="http://www.w3.org/1999/xlink" x="0px" y="0px"
	 width="100%" viewBox="0 0 225 225" enable-background="new 0 0 225 225" xml:space="preserve">
<path fill="#1E88E5" opacity="1.000000" stroke="none" 
	d="
M1.000000,169.000000 
	C1.000000,132.312439 1.000000,95.624878 1.340955,58.276711 
	C5.964993,29.953028 25.980154,8.313544 52.453083,2.667443 
	C54.334995,2.266073 56.152531,1.562862 58.000000,1.000000 
	C94.354225,1.000000 130.708450,1.000000 167.731522,1.345442 
	C193.534271,5.284188 211.049683,18.910412 221.033005,42.116016 
	C223.213669,47.184822 224.371246,52.693764 226.000000,58.000000 
	C226.000000,94.687561 226.000000,131.375122 225.659027,168.723282 
	C220.996063,197.292923 201.325073,218.394836 173.995880,224.464401 
	C171.982864,224.911484 169.997971,225.485168 168.000000,226.000000 
	C131.645767,226.000000 95.291542,226.000000 58.276901,225.659042 
	C32.281605,220.980682 14.724817,206.909546 5.166704,183.066238 
	C3.355046,178.546967 2.367691,173.697250 1.000000,169.000000 
M75.722694,161.444489 
	C75.722694,172.923920 75.722694,184.403351 75.722694,197.023529 
	C78.234337,194.991821 79.519165,193.968140 80.787338,192.924210 
	C93.345261,182.586685 105.900452,172.245850 119.466820,161.940170 
	C143.238785,161.959610 167.010788,162.002579 190.782593,161.950256 
	C192.533005,161.946396 194.281921,161.255341 196.599075,160.275604 
	C196.714935,159.127213 196.931625,157.978882 196.932098,156.830444 
	C196.948944,115.666214 196.946609,74.501984 196.938873,33.337749 
	C196.938690,32.382702 196.846054,31.427670 196.792297,30.390774 
	C141.070389,30.390774 85.693901,30.390774 30.192575,30.390774 
	C30.136007,31.536709 30.060602,32.352802 30.060474,33.168903 
	C30.054037,74.333130 30.044981,115.497368 30.091799,156.661545 
	C30.093399,158.069305 30.662580,159.476410 31.667873,161.336166 
	C45.671841,161.444656 59.675777,161.559418 73.679932,161.632477 
	C74.117546,161.634766 74.557411,161.205978 75.722694,161.444489 
z"/>
<path fill="#FDFEFF" opacity="1.000000" stroke="none" 
	d="
M57.531342,1.000000 
	C56.152531,1.562862 54.334995,2.266073 52.453083,2.667443 
	C25.980154,8.313544 5.964993,29.953028 1.340955,57.808052 
	C1.000000,39.073208 1.000000,20.146416 1.000000,1.000000 
	C19.686987,1.000000 38.374836,1.000000 57.531342,1.000000 
z"/>
<path fill="#FDFEFF" opacity="1.000000" stroke="none" 
	d="
M168.468658,226.000000 
	C169.997971,225.485168 171.982864,224.911484 173.995880,224.464401 
	C201.325073,218.394836 220.996063,197.292923 225.659027,169.191940 
	C226.000000,187.927429 226.000000,206.854874 226.000000,226.000000 
	C206.979660,226.000000 187.958481,226.000000 168.468658,226.000000 
z"/>
<path fill="#FDFEFF" opacity="1.000000" stroke="none" 
	d="
M226.000000,57.531342 
	C224.371246,52.693764 223.213669,47.184822 221.033005,42.116016 
	C211.049683,18.910412 193.534271,5.284188 168.200180,1.345442 
	C187.259491,1.000000 206.518982,1.000000 226.000000,1.000000 
	C226.000000,19.686977 226.000000,38.374832 226.000000,57.531342 
z"/>
<path fill="#FDFEFF" opacity="1.000000" stroke="none" 
	d="
M1.000000,169.468658 
	C2.367691,173.697250 3.355046,178.546967 5.166704,183.066238 
	C14.724817,206.909546 32.281605,220.980682 57.808243,225.659042 
	C39.073208,226.000000 20.146416,226.000000 1.000000,226.000000 
	C1.000000,207.313019 1.000000,188.625168 1.000000,169.468658 
z"/>
<path fill="#FEFEFF" opacity="1.000000" stroke="none" 
	d="
M30.967209,160.883820 
	C30.662580,159.476410 30.093399,158.069305 30.091799,156.661545 
	C30.044981,115.497368 30.054037,74.333130 30.060474,33.168903 
	C30.060602,32.352802 30.136007,31.536709 30.192575,30.390774 
	C85.693901,30.390774 141.070389,30.390774 196.792297,30.390774 
	C196.846054,31.427670 196.938690,32.382702 196.938873,33.337749 
	C196.946609,74.501984 196.948944,115.666214 196.932098,156.830444 
	C196.931625,157.978882 196.714935,159.127213 195.852814,160.487640 
	C171.079498,160.681580 147.052383,160.640472 123.025528,160.699478 
	C121.501511,160.703232 119.979408,161.485733 118.456406,161.905945 
	C105.900452,172.245850 93.345261,182.586685 80.787338,192.924210 
	C79.519165,193.968140 78.234337,194.991821 75.722694,197.023529 
	C75.722694,184.403351 75.722694,172.923920 74.907486,161.080536 
	C59.717251,160.772339 45.342228,160.828079 30.967209,160.883820 
M140.238617,85.787308 
	C135.872971,91.490387 135.258347,97.089691 138.421432,102.342117 
	C141.177109,106.918022 146.895370,109.596573 152.022827,108.713287 
	C157.843704,107.710548 162.013046,103.769730 163.192352,98.155983 
	C164.398529,92.414268 162.229736,86.973358 157.495239,83.863564 
	C152.670288,80.694366 146.240738,81.235817 140.238617,85.787308 
M90.539848,94.705002 
	C88.768806,84.061012 80.118439,78.892044 70.963593,83.007355 
	C66.157745,85.167686 63.255714,90.392731 63.499393,96.446503 
	C63.702076,101.481781 67.349617,106.249100 72.344284,108.006752 
	C81.242958,111.138252 88.843704,105.907867 90.539848,94.705002 
M110.345268,108.424866 
	C117.297333,109.439713 122.687065,107.007927 125.527191,101.574959 
	C128.145767,96.565842 127.403999,90.392807 123.678696,86.191528 
	C119.746742,81.757195 113.407753,80.531097 107.417755,83.046310 
	C103.141060,84.842102 99.969612,89.988899 99.969826,95.133217 
	C99.970085,101.365509 102.959358,105.427620 110.345268,108.424866 
z"/>
<path fill="#0383E4" opacity="1.000000" stroke="none" 
	d="
M118.961617,161.923050 
	C119.979408,161.485733 121.501511,160.703232 123.025528,160.699478 
	C147.052383,160.640472 171.079498,160.681580 195.569031,160.791733 
	C194.281921,161.255341 192.533005,161.946396 190.782593,161.950256 
	C167.010788,162.002579 143.238785,161.959610 118.961617,161.923050 
z"/>
<path fill="#0383E4" opacity="1.000000" stroke="none" 
	d="
M31.317541,161.109985 
	C45.342228,160.828079 59.717251,160.772339 74.544250,160.847382 
	C74.557411,161.205978 74.117546,161.634766 73.679932,161.632477 
	C59.675777,161.559418 45.671841,161.444656 31.317541,161.109985 
z"/>
<path fill="#2089E5" opacity="1.000000" stroke="none" 
	d="
M140.501129,85.529945 
	C146.240738,81.235817 152.670288,80.694366 157.495239,83.863564 
	C162.229736,86.973358 164.398529,92.414268 163.192352,98.155983 
	C162.013046,103.769730 157.843704,107.710548 152.022827,108.713287 
	C146.895370,109.596573 141.177109,106.918022 138.421432,102.342117 
	C135.258347,97.089691 135.872971,91.490387 140.501129,85.529945 
z"/>
<path fill="#2089E5" opacity="1.000000" stroke="none" 
	d="
M90.543655,95.092697 
	C88.843704,105.907867 81.242958,111.138252 72.344284,108.006752 
	C67.349617,106.249100 63.702076,101.481781 63.499393,96.446503 
	C63.255714,90.392731 66.157745,85.167686 70.963593,83.007355 
	C80.118439,78.892044 88.768806,84.061012 90.543655,95.092697 
z"/>
<path fill="#1F89E5" opacity="1.000000" stroke="none" 
	d="
M109.965500,108.312546 
	C102.959358,105.427620 99.970085,101.365509 99.969826,95.133217 
	C99.969612,89.988899 103.141060,84.842102 107.417755,83.046310 
	C113.407753,80.531097 119.746742,81.757195 123.678696,86.191528 
	C127.403999,90.392807 128.145767,96.565842 125.527191,101.574959 
	C122.687065,107.007927 117.297333,109.439713 109.965500,108.312546 
z"/>
</svg>